
        <svg xmlns="http://www.w3.org/2000/svg" xmlns:xlink="http://www.w3.org/1999/xlink" version="1.1" width="3154.0022682504627" height="1249.237200435141" viewBox="0 0 3154.0022682504627 1249.237200435141">
			
			<g transform="scale(7.70011341252313) translate(10, 10)">
				<defs id="SvgjsDefs1915"/><g id="SvgjsG1916" featureKey="PG4fjM-0" transform="matrix(1.3803594476739391,0,0,1.3803594476739391,-26.320300597919008,-7.358452889705667)" fill="#fff"><path xmlns="http://www.w3.org/2000/svg" d="M48,49.7c2.6-15.9,14.4-22.6,21.5-25.2c0.9-0.3,0.9-1.5,0.1-1.9c-10-4.9-25-0.9-36.5,10.5c-12,12-15.9,28.2-9.6,38.1    c0.8,1.2,2.2,1.8,3.6,1.4C32.5,71,45.4,65.7,48,49.7z"/><path xmlns="http://www.w3.org/2000/svg" d="M52,50.3c-1.2,7.7-4.6,13.2-8.6,17.1c-4.3,4.3-9.2,6.7-12.9,8.1c-0.9,0.3-0.9,1.5-0.1,1.9c10,4.9,25,0.9,36.5-10.5    c12-12,15.9-28.2,9.6-38.1c-0.8-1.2-2.2-1.8-3.6-1.4C67.5,29,54.6,34.3,52,50.3z"/></g><g id="SvgjsG1917" featureKey="jxYttZ-0" transform="matrix(9.558884253251449,0,0,9.558884253251449,121,-51.61798955325767)" fill="#fff"><path d="M4.7 5.699999999999999 l0 0.58 l-2.04 0 l0 13.72 l-0.58 0 l0 -13.72 l-2.08 0 l0 -0.58 l4.7 0 z M10.7 20 l-0.56 -2.26 l-5.48 0 l-0.56 2.26 l-0.6 0 l3.54 -14.3 l0.72 0 l3.54 14.3 l-0.6 0 z M4.8 17.14 l5.2 0 l-2.6 -10.44 z M15.1 20.28 c-1.18 0 -2.3 -0.56 -3 -1.52 l0.46 -0.34 c0.6 0.8 1.54 1.28 2.54 1.28 c1.7 0 3.1 -1.4 3.1 -3.12 c0 -1.78 -1.36 -3.08 -2.68 -4.36 c-1.28 -1.2 -2.58 -2.46 -2.58 -4.12 c0 -1.48 1.22 -2.7 2.7 -2.7 c0.86 0 1.68 0.42 2.2 1.12 l-0.48 0.34 c-0.4 -0.54 -1.04 -0.88 -1.72 -0.88 c-1.16 0 -2.12 0.96 -2.12 2.12 c0 1.4 1.16 2.52 2.4 3.7 c1.4 1.36 2.86 2.76 2.86 4.78 c0 2.04 -1.66 3.7 -3.68 3.7 z M26.72 6.279999999999999 c-2.14 0 -4.06 1.04 -5.26 2.64 c3.22 2.62 5.26 6.6 5.26 11.08 l-0.58 0 c0 -4.26 -1.94 -8.08 -5 -10.6 c-0.62 1 -0.98 2.18 -0.98 3.44 l0 7.16 l-0.58 0 l0 -14.3 l0.58 0 l0 4.32 c1.1 -2.54 3.62 -4.32 6.56 -4.32 l0 0.58 z M28.099999999999998 5.699999999999999 l0 14.3 l-0.58 0 l0 -14.3 l0.58 0 z"/></g>
			</g>
		</svg>
	